<?xml version="1.0" encoding="UTF-8" standalone="no"?>
<!DOCTYPE svg PUBLIC "-//W3C//DTD SVG 1.1//EN"
 "http://www.w3.org/Graphics/SVG/1.1/DTD/svg11.dtd">
<!-- Generated by graphviz version 2.47.0 (20210316.0004)
 -->
<!-- Title: dependencies Pages: 1 -->
<svg width="956pt" height="284pt"
 viewBox="0.00 0.00 956.00 284.00" xmlns="http://www.w3.org/2000/svg" xmlns:xlink="http://www.w3.org/1999/xlink">
<g id="graph0" class="graph" transform="scale(1 1) rotate(0) translate(4 280)">
<title>dependencies</title>
<polygon fill="white" stroke="transparent" points="-4,4 -4,-280 952,-280 952,4 -4,4"/>
<text text-anchor="start" x="453.01" y="-42.4" font-family="sans-serif" font-weight="bold" font-size="14.00">Legend</text>
<polygon fill="#ffffb3" stroke="transparent" points="240,-10 240,-30 260,-30 260,-10 240,-10"/>
<text text-anchor="start" x="263.63" y="-15.4" font-family="sans-serif" font-size="14.00"> &#160;Declarations</text>
<polygon fill="#8dd3c7" stroke="transparent" points="353,-10 353,-30 373,-30 373,-10 353,-10"/>
<text text-anchor="start" x="376.73" y="-15.4" font-family="sans-serif" font-size="14.00"> &#160;Module</text>
<polygon fill="#80b1d3" stroke="transparent" points="439,-10 439,-30 459,-30 459,-10 439,-10"/>
<text text-anchor="start" x="462.78" y="-15.4" font-family="sans-serif" font-size="14.00"> &#160;Bootstrap</text>
<polygon fill="#fdb462" stroke="transparent" points="536,-10 536,-30 556,-30 556,-10 536,-10"/>
<text text-anchor="start" x="559.67" y="-15.4" font-family="sans-serif" font-size="14.00"> &#160;Providers</text>
<polygon fill="#fb8072" stroke="transparent" points="632,-10 632,-30 652,-30 652,-10 632,-10"/>
<text text-anchor="start" x="655.73" y="-15.4" font-family="sans-serif" font-size="14.00"> &#160;Exports</text>
<g id="clust1" class="cluster">
<title>cluster_CoreModule</title>
<polygon fill="none" stroke="black" stroke-dasharray="1,5" points="8,-70 8,-268 940,-268 940,-70 8,-70"/>
</g>
<g id="clust2" class="cluster">
<title>cluster_CoreModule_declarations</title>
<polygon fill="none" stroke="black" points="328,-78 328,-130 908,-130 908,-78 328,-78"/>
</g>
<g id="clust8" class="cluster">
<title>cluster_CoreModule_exports</title>
<polygon fill="none" stroke="black" points="16,-208 16,-260 932,-260 932,-208 16,-208"/>
</g>
<g id="clust7" class="cluster">
<title>cluster_CoreModule_imports</title>
<polygon fill="none" stroke="black" points="76,-78 76,-130 320,-130 320,-78 76,-78"/>
</g>
<!-- HeaderComponent -->
<g id="node1" class="node">
<title>HeaderComponent</title>
<polygon fill="#ffffb3" stroke="black" points="899.74,-122 778.26,-122 778.26,-86 899.74,-86 899.74,-122"/>
<text text-anchor="middle" x="839" y="-99.8" font-family="Times,serif" font-size="14.00">HeaderComponent</text>
</g>
<!-- CoreModule -->
<g id="node5" class="node">
<title>CoreModule</title>
<polygon fill="#8dd3c7" stroke="black" points="590.26,-187 587.26,-191 566.26,-191 563.26,-187 503.74,-187 503.74,-151 590.26,-151 590.26,-187"/>
<text text-anchor="middle" x="547" y="-164.8" font-family="Times,serif" font-size="14.00">CoreModule</text>
</g>
<!-- HeaderComponent&#45;&gt;CoreModule -->
<g id="edge1" class="edge">
<title>HeaderComponent&#45;&gt;CoreModule</title>
<path fill="none" stroke="black" d="M803.41,-122.02C803.41,-139.37 803.41,-163 803.41,-163 803.41,-163 600.5,-163 600.5,-163"/>
<polygon fill="black" stroke="black" points="600.5,-159.5 590.5,-163 600.5,-166.5 600.5,-159.5"/>
</g>
<!-- FooterComponent -->
<g id="node2" class="node">
<title>FooterComponent</title>
<polygon fill="#ffffb3" stroke="black" points="759.88,-122 642.12,-122 642.12,-86 759.88,-86 759.88,-122"/>
<text text-anchor="middle" x="701" y="-99.8" font-family="Times,serif" font-size="14.00">FooterComponent</text>
</g>
<!-- FooterComponent&#45;&gt;CoreModule -->
<g id="edge2" class="edge">
<title>FooterComponent&#45;&gt;CoreModule</title>
<path fill="none" stroke="black" d="M679.73,-122.24C679.73,-137.57 679.73,-157 679.73,-157 679.73,-157 600.46,-157 600.46,-157"/>
<polygon fill="black" stroke="black" points="600.46,-153.5 590.46,-157 600.46,-160.5 600.46,-153.5"/>
</g>
<!-- NavComponent -->
<g id="node3" class="node">
<title>NavComponent</title>
<polygon fill="#ffffb3" stroke="black" points="624.15,-122 519.85,-122 519.85,-86 624.15,-86 624.15,-122"/>
<text text-anchor="middle" x="572" y="-99.8" font-family="Times,serif" font-size="14.00">NavComponent</text>
</g>
<!-- NavComponent&#45;&gt;CoreModule -->
<g id="edge3" class="edge">
<title>NavComponent&#45;&gt;CoreModule</title>
<path fill="none" stroke="black" d="M555.03,-122.11C555.03,-122.11 555.03,-140.99 555.03,-140.99"/>
<polygon fill="black" stroke="black" points="551.53,-140.99 555.03,-150.99 558.53,-140.99 551.53,-140.99"/>
</g>
<!-- PageNotFoundComponent -->
<g id="node4" class="node">
<title>PageNotFoundComponent</title>
<polygon fill="#ffffb3" stroke="black" points="501.82,-122 336.18,-122 336.18,-86 501.82,-86 501.82,-122"/>
<text text-anchor="middle" x="419" y="-99.8" font-family="Times,serif" font-size="14.00">PageNotFoundComponent</text>
</g>
<!-- PageNotFoundComponent&#45;&gt;CoreModule -->
<g id="edge4" class="edge">
<title>PageNotFoundComponent&#45;&gt;CoreModule</title>
<path fill="none" stroke="black" d="M497.29,-122.24C497.29,-137.57 497.29,-157 497.29,-157 497.29,-157 497.9,-157 497.9,-157"/>
<polygon fill="black" stroke="black" points="493.39,-160.5 503.39,-157 493.39,-153.5 493.39,-160.5"/>
</g>
<!-- UiModule  -->
<g id="node8" class="node">
<title>UiModule </title>
<polygon fill="#fb8072" stroke="black" points="923.55,-252 846.45,-252 846.45,-216 923.55,-216 923.55,-252"/>
<text text-anchor="middle" x="885" y="-229.8" font-family="Times,serif" font-size="14.00">UiModule </text>
</g>
<!-- CoreModule&#45;&gt;UiModule  -->
<g id="edge7" class="edge">
<title>CoreModule&#45;&gt;UiModule </title>
<path fill="none" stroke="black" stroke-dasharray="5,2" d="M590.31,-169C679.04,-169 873.17,-169 873.17,-169 873.17,-169 873.17,-205.89 873.17,-205.89"/>
<polygon fill="black" stroke="black" points="869.67,-205.89 873.17,-215.89 876.67,-205.89 869.67,-205.89"/>
</g>
<!-- IconsModule  -->
<g id="node9" class="node">
<title>IconsModule </title>
<polygon fill="#fb8072" stroke="black" points="828.87,-252 735.13,-252 735.13,-216 828.87,-216 828.87,-252"/>
<text text-anchor="middle" x="782" y="-229.8" font-family="Times,serif" font-size="14.00">IconsModule </text>
</g>
<!-- CoreModule&#45;&gt;IconsModule  -->
<g id="edge8" class="edge">
<title>CoreModule&#45;&gt;IconsModule </title>
<path fill="none" stroke="black" stroke-dasharray="5,2" d="M590.53,-175C649.54,-175 747.63,-175 747.63,-175 747.63,-175 747.63,-205.98 747.63,-205.98"/>
<polygon fill="black" stroke="black" points="744.13,-205.98 747.63,-215.98 751.13,-205.98 744.13,-205.98"/>
</g>
<!-- MeteoModule  -->
<g id="node10" class="node">
<title>MeteoModule </title>
<polygon fill="#fb8072" stroke="black" points="717.31,-252 618.69,-252 618.69,-216 717.31,-216 717.31,-252"/>
<text text-anchor="middle" x="668" y="-229.8" font-family="Times,serif" font-size="14.00">MeteoModule </text>
</g>
<!-- CoreModule&#45;&gt;MeteoModule  -->
<g id="edge9" class="edge">
<title>CoreModule&#45;&gt;MeteoModule </title>
<path fill="none" stroke="black" stroke-dasharray="5,2" d="M590.35,-181C611.81,-181 633.19,-181 633.19,-181 633.19,-181 633.19,-205.76 633.19,-205.76"/>
<polygon fill="black" stroke="black" points="629.69,-205.76 633.19,-215.76 636.69,-205.76 629.69,-205.76"/>
</g>
<!-- NavComponent  -->
<g id="node11" class="node">
<title>NavComponent </title>
<polygon fill="#fb8072" stroke="black" points="601.15,-252 492.85,-252 492.85,-216 601.15,-216 601.15,-252"/>
<text text-anchor="middle" x="547" y="-229.8" font-family="Times,serif" font-size="14.00">NavComponent </text>
</g>
<!-- CoreModule&#45;&gt;NavComponent  -->
<g id="edge10" class="edge">
<title>CoreModule&#45;&gt;NavComponent </title>
<path fill="none" stroke="black" stroke-dasharray="5,2" d="M547,-187.11C547,-187.11 547,-205.99 547,-205.99"/>
<polygon fill="black" stroke="black" points="543.5,-205.99 547,-215.99 550.5,-205.99 543.5,-205.99"/>
</g>
<!-- HeaderComponent  -->
<g id="node12" class="node">
<title>HeaderComponent </title>
<polygon fill="#fb8072" stroke="black" points="474.74,-252 349.26,-252 349.26,-216 474.74,-216 474.74,-252"/>
<text text-anchor="middle" x="412" y="-229.8" font-family="Times,serif" font-size="14.00">HeaderComponent </text>
</g>
<!-- CoreModule&#45;&gt;HeaderComponent  -->
<g id="edge11" class="edge">
<title>CoreModule&#45;&gt;HeaderComponent </title>
<path fill="none" stroke="black" stroke-dasharray="5,2" d="M503.54,-182C464.08,-182 412,-182 412,-182 412,-182 412,-205.81 412,-205.81"/>
<polygon fill="black" stroke="black" points="408.5,-205.81 412,-215.81 415.5,-205.81 408.5,-205.81"/>
</g>
<!-- FooterComponent  -->
<g id="node13" class="node">
<title>FooterComponent </title>
<polygon fill="#fb8072" stroke="black" points="331.88,-252 210.12,-252 210.12,-216 331.88,-216 331.88,-252"/>
<text text-anchor="middle" x="271" y="-229.8" font-family="Times,serif" font-size="14.00">FooterComponent </text>
</g>
<!-- CoreModule&#45;&gt;FooterComponent  -->
<g id="edge12" class="edge">
<title>CoreModule&#45;&gt;FooterComponent </title>
<path fill="none" stroke="black" stroke-dasharray="5,2" d="M503.57,-177C438.12,-177 321.76,-177 321.76,-177 321.76,-177 321.76,-205.96 321.76,-205.96"/>
<polygon fill="black" stroke="black" points="318.26,-205.96 321.76,-215.96 325.26,-205.96 318.26,-205.96"/>
</g>
<!-- PageNotFoundComponent  -->
<g id="node14" class="node">
<title>PageNotFoundComponent </title>
<polygon fill="#fb8072" stroke="black" points="192.32,-252 23.68,-252 23.68,-216 192.32,-216 192.32,-252"/>
<text text-anchor="middle" x="108" y="-229.8" font-family="Times,serif" font-size="14.00">PageNotFoundComponent </text>
</g>
<!-- CoreModule&#45;&gt;PageNotFoundComponent  -->
<g id="edge13" class="edge">
<title>CoreModule&#45;&gt;PageNotFoundComponent </title>
<path fill="none" stroke="black" stroke-dasharray="5,2" d="M503.59,-172C407.87,-172 187.12,-172 187.12,-172 187.12,-172 187.12,-205.73 187.12,-205.73"/>
<polygon fill="black" stroke="black" points="183.62,-205.73 187.12,-215.73 190.62,-205.73 183.62,-205.73"/>
</g>
<!-- CommonModule -->
<g id="node6" class="node">
<title>CommonModule</title>
<polygon fill="#8dd3c7" stroke="black" points="311.67,-122 308.67,-126 287.67,-126 284.67,-122 200.33,-122 200.33,-86 311.67,-86 311.67,-122"/>
<text text-anchor="middle" x="256" y="-99.8" font-family="Times,serif" font-size="14.00">CommonModule</text>
</g>
<!-- CommonModule&#45;&gt;CoreModule -->
<g id="edge5" class="edge">
<title>CommonModule&#45;&gt;CoreModule</title>
<path fill="none" stroke="black" d="M261.07,-122.03C261.07,-139.06 261.07,-162 261.07,-162 261.07,-162 493.57,-162 493.57,-162"/>
<polygon fill="black" stroke="black" points="493.57,-165.5 503.57,-162 493.57,-158.5 493.57,-165.5"/>
</g>
<!-- RouterModule -->
<g id="node7" class="node">
<title>RouterModule</title>
<polygon fill="#8dd3c7" stroke="black" points="181.65,-122 178.65,-126 157.65,-126 154.65,-122 84.35,-122 84.35,-86 181.65,-86 181.65,-122"/>
<text text-anchor="middle" x="133" y="-99.8" font-family="Times,serif" font-size="14.00">RouterModule</text>
</g>
<!-- RouterModule&#45;&gt;CoreModule -->
<g id="edge6" class="edge">
<title>RouterModule&#45;&gt;CoreModule</title>
<path fill="none" stroke="black" d="M133,-122.22C133,-140.83 133,-167 133,-167 133,-167 493.48,-167 493.48,-167"/>
<polygon fill="black" stroke="black" points="493.48,-170.5 503.48,-167 493.48,-163.5 493.48,-170.5"/>
</g>
</g>
</svg>
