<?xml version="1.0" encoding="UTF-8" standalone="no"?>
<!DOCTYPE svg PUBLIC "-//W3C//DTD SVG 1.1//EN"
 "http://www.w3.org/Graphics/SVG/1.1/DTD/svg11.dtd">
<!-- Generated by graphviz version 2.47.0 (20210316.0004)
 -->
<!-- Title: dependencies Pages: 1 -->
<svg width="504pt" height="284pt"
 viewBox="0.00 0.00 504.00 284.00" xmlns="http://www.w3.org/2000/svg" xmlns:xlink="http://www.w3.org/1999/xlink">
<g id="graph0" class="graph" transform="scale(1 1) rotate(0) translate(4 280)">
<title>dependencies</title>
<polygon fill="white" stroke="transparent" points="-4,4 -4,-280 500,-280 500,4 -4,4"/>
<text text-anchor="start" x="227.01" y="-42.4" font-family="sans-serif" font-weight="bold" font-size="14.00">Legend</text>
<polygon fill="#ffffb3" stroke="transparent" points="14,-10 14,-30 34,-30 34,-10 14,-10"/>
<text text-anchor="start" x="37.63" y="-15.4" font-family="sans-serif" font-size="14.00"> &#160;Declarations</text>
<polygon fill="#8dd3c7" stroke="transparent" points="127,-10 127,-30 147,-30 147,-10 127,-10"/>
<text text-anchor="start" x="150.73" y="-15.4" font-family="sans-serif" font-size="14.00"> &#160;Module</text>
<polygon fill="#80b1d3" stroke="transparent" points="213,-10 213,-30 233,-30 233,-10 213,-10"/>
<text text-anchor="start" x="236.78" y="-15.4" font-family="sans-serif" font-size="14.00"> &#160;Bootstrap</text>
<polygon fill="#fdb462" stroke="transparent" points="310,-10 310,-30 330,-30 330,-10 310,-10"/>
<text text-anchor="start" x="333.67" y="-15.4" font-family="sans-serif" font-size="14.00"> &#160;Providers</text>
<polygon fill="#fb8072" stroke="transparent" points="406,-10 406,-30 426,-30 426,-10 406,-10"/>
<text text-anchor="start" x="429.73" y="-15.4" font-family="sans-serif" font-size="14.00"> &#160;Exports</text>
<g id="clust1" class="cluster">
<title>cluster_SharedModule</title>
<polygon fill="none" stroke="black" stroke-dasharray="1,5" points="38,-70 38,-268 458,-268 458,-70 38,-70"/>
</g>
<g id="clust4" class="cluster">
<title>cluster_SharedModule_imports</title>
<polygon fill="none" stroke="black" points="206,-78 206,-130 450,-130 450,-78 206,-78"/>
</g>
<g id="clust5" class="cluster">
<title>cluster_SharedModule_exports</title>
<polygon fill="none" stroke="black" points="128,-208 128,-260 396,-260 396,-208 128,-208"/>
</g>
<g id="clust2" class="cluster">
<title>cluster_SharedModule_declarations</title>
<polygon fill="none" stroke="black" points="46,-78 46,-130 198,-130 198,-78 46,-78"/>
</g>
<!-- TplMeteoComponent -->
<g id="node1" class="node">
<title>TplMeteoComponent</title>
<polygon fill="#ffffb3" stroke="black" points="190.04,-122 53.96,-122 53.96,-86 190.04,-86 190.04,-122"/>
<text text-anchor="middle" x="122" y="-99.8" font-family="Times,serif" font-size="14.00">TplMeteoComponent</text>
</g>
<!-- SharedModule -->
<g id="node2" class="node">
<title>SharedModule</title>
<polygon fill="#8dd3c7" stroke="black" points="312.42,-187 309.42,-191 288.42,-191 285.42,-187 213.58,-187 213.58,-151 312.42,-151 312.42,-187"/>
<text text-anchor="middle" x="263" y="-164.8" font-family="Times,serif" font-size="14.00">SharedModule</text>
</g>
<!-- TplMeteoComponent&#45;&gt;SharedModule -->
<g id="edge1" class="edge">
<title>TplMeteoComponent&#45;&gt;SharedModule</title>
<path fill="none" stroke="black" d="M163.29,-122.11C163.29,-141.34 163.29,-169 163.29,-169 163.29,-169 203.73,-169 203.73,-169"/>
<polygon fill="black" stroke="black" points="203.73,-172.5 213.73,-169 203.73,-165.5 203.73,-172.5"/>
</g>
<!-- TplMeteoComponent  -->
<g id="node5" class="node">
<title>TplMeteoComponent </title>
<polygon fill="#fb8072" stroke="black" points="388.04,-252 247.96,-252 247.96,-216 388.04,-216 388.04,-252"/>
<text text-anchor="middle" x="318" y="-229.8" font-family="Times,serif" font-size="14.00">TplMeteoComponent </text>
</g>
<!-- SharedModule&#45;&gt;TplMeteoComponent  -->
<g id="edge4" class="edge">
<title>SharedModule&#45;&gt;TplMeteoComponent </title>
<path fill="none" stroke="black" stroke-dasharray="5,2" d="M280.1,-187.11C280.1,-187.11 280.1,-205.99 280.1,-205.99"/>
<polygon fill="black" stroke="black" points="276.6,-205.99 280.1,-215.99 283.6,-205.99 276.6,-205.99"/>
</g>
<!-- IconsModule  -->
<g id="node6" class="node">
<title>IconsModule </title>
<polygon fill="#fb8072" stroke="black" points="229.87,-252 136.13,-252 136.13,-216 229.87,-216 229.87,-252"/>
<text text-anchor="middle" x="183" y="-229.8" font-family="Times,serif" font-size="14.00">IconsModule </text>
</g>
<!-- SharedModule&#45;&gt;IconsModule  -->
<g id="edge5" class="edge">
<title>SharedModule&#45;&gt;IconsModule </title>
<path fill="none" stroke="black" stroke-dasharray="5,2" d="M221.74,-187.11C221.74,-187.11 221.74,-205.99 221.74,-205.99"/>
<polygon fill="black" stroke="black" points="218.24,-205.99 221.74,-215.99 225.24,-205.99 218.24,-205.99"/>
</g>
<!-- CommonModule -->
<g id="node3" class="node">
<title>CommonModule</title>
<polygon fill="#8dd3c7" stroke="black" points="441.67,-122 438.67,-126 417.67,-126 414.67,-122 330.33,-122 330.33,-86 441.67,-86 441.67,-122"/>
<text text-anchor="middle" x="386" y="-99.8" font-family="Times,serif" font-size="14.00">CommonModule</text>
</g>
<!-- CommonModule&#45;&gt;SharedModule -->
<g id="edge2" class="edge">
<title>CommonModule&#45;&gt;SharedModule</title>
<path fill="none" stroke="black" d="M359.09,-122.11C359.09,-141.34 359.09,-169 359.09,-169 359.09,-169 322.45,-169 322.45,-169"/>
<polygon fill="black" stroke="black" points="322.45,-165.5 312.45,-169 322.45,-172.5 322.45,-165.5"/>
</g>
<!-- RouterModule -->
<g id="node4" class="node">
<title>RouterModule</title>
<polygon fill="#8dd3c7" stroke="black" points="311.65,-122 308.65,-126 287.65,-126 284.65,-122 214.35,-122 214.35,-86 311.65,-86 311.65,-122"/>
<text text-anchor="middle" x="263" y="-99.8" font-family="Times,serif" font-size="14.00">RouterModule</text>
</g>
<!-- RouterModule&#45;&gt;SharedModule -->
<g id="edge3" class="edge">
<title>RouterModule&#45;&gt;SharedModule</title>
<path fill="none" stroke="black" d="M263,-122.11C263,-122.11 263,-140.99 263,-140.99"/>
<polygon fill="black" stroke="black" points="259.5,-140.99 263,-150.99 266.5,-140.99 259.5,-140.99"/>
</g>
</g>
</svg>
