<?xml version="1.0" encoding="UTF-8" standalone="no"?>
<!DOCTYPE svg PUBLIC "-//W3C//DTD SVG 1.1//EN"
 "http://www.w3.org/Graphics/SVG/1.1/DTD/svg11.dtd">
<!-- Generated by graphviz version 2.47.0 (20210316.0004)
 -->
<!-- Title: dependencies Pages: 1 -->
<svg width="504pt" height="284pt"
 viewBox="0.00 0.00 504.00 284.00" xmlns="http://www.w3.org/2000/svg" xmlns:xlink="http://www.w3.org/1999/xlink">
<g id="graph0" class="graph" transform="scale(1 1) rotate(0) translate(4 280)">
<title>dependencies</title>
<polygon fill="white" stroke="transparent" points="-4,4 -4,-280 500,-280 500,4 -4,4"/>
<text text-anchor="start" x="227.01" y="-42.4" font-family="sans-serif" font-weight="bold" font-size="14.00">Legend</text>
<polygon fill="#ffffb3" stroke="transparent" points="14,-10 14,-30 34,-30 34,-10 14,-10"/>
<text text-anchor="start" x="37.63" y="-15.4" font-family="sans-serif" font-size="14.00"> &#160;Declarations</text>
<polygon fill="#8dd3c7" stroke="transparent" points="127,-10 127,-30 147,-30 147,-10 127,-10"/>
<text text-anchor="start" x="150.73" y="-15.4" font-family="sans-serif" font-size="14.00"> &#160;Module</text>
<polygon fill="#80b1d3" stroke="transparent" points="213,-10 213,-30 233,-30 233,-10 213,-10"/>
<text text-anchor="start" x="236.78" y="-15.4" font-family="sans-serif" font-size="14.00"> &#160;Bootstrap</text>
<polygon fill="#fdb462" stroke="transparent" points="310,-10 310,-30 330,-30 330,-10 310,-10"/>
<text text-anchor="start" x="333.67" y="-15.4" font-family="sans-serif" font-size="14.00"> &#160;Providers</text>
<polygon fill="#fb8072" stroke="transparent" points="406,-10 406,-30 426,-30 426,-10 406,-10"/>
<text text-anchor="start" x="429.73" y="-15.4" font-family="sans-serif" font-size="14.00"> &#160;Exports</text>
<g id="clust1" class="cluster">
<title>cluster_UiModule</title>
<polygon fill="none" stroke="black" stroke-dasharray="1,5" points="116,-70 116,-268 380,-268 380,-70 116,-70"/>
</g>
<g id="clust5" class="cluster">
<title>cluster_UiModule_exports</title>
<polygon fill="none" stroke="black" points="187,-208 187,-260 301,-260 301,-208 187,-208"/>
</g>
<g id="clust4" class="cluster">
<title>cluster_UiModule_imports</title>
<polygon fill="none" stroke="black" points="244,-78 244,-130 372,-130 372,-78 244,-78"/>
</g>
<g id="clust2" class="cluster">
<title>cluster_UiModule_declarations</title>
<polygon fill="none" stroke="black" points="124,-78 124,-130 236,-130 236,-78 124,-78"/>
</g>
<!-- UiComponent -->
<g id="node1" class="node">
<title>UiComponent</title>
<polygon fill="#ffffb3" stroke="black" points="227.83,-122 132.17,-122 132.17,-86 227.83,-86 227.83,-122"/>
<text text-anchor="middle" x="180" y="-99.8" font-family="Times,serif" font-size="14.00">UiComponent</text>
</g>
<!-- UiModule -->
<g id="node2" class="node">
<title>UiModule</title>
<polygon fill="#8dd3c7" stroke="black" points="280.55,-187 277.55,-191 256.55,-191 253.55,-187 207.45,-187 207.45,-151 280.55,-151 280.55,-187"/>
<text text-anchor="middle" x="244" y="-164.8" font-family="Times,serif" font-size="14.00">UiModule</text>
</g>
<!-- UiComponent&#45;&gt;UiModule -->
<g id="edge1" class="edge">
<title>UiComponent&#45;&gt;UiModule</title>
<path fill="none" stroke="black" d="M217.45,-122.11C217.45,-122.11 217.45,-140.99 217.45,-140.99"/>
<polygon fill="black" stroke="black" points="213.95,-140.99 217.45,-150.99 220.95,-140.99 213.95,-140.99"/>
</g>
<!-- UiComponent  -->
<g id="node4" class="node">
<title>UiComponent </title>
<polygon fill="#fb8072" stroke="black" points="293.33,-252 194.67,-252 194.67,-216 293.33,-216 293.33,-252"/>
<text text-anchor="middle" x="244" y="-229.8" font-family="Times,serif" font-size="14.00">UiComponent </text>
</g>
<!-- UiModule&#45;&gt;UiComponent  -->
<g id="edge3" class="edge">
<title>UiModule&#45;&gt;UiComponent </title>
<path fill="none" stroke="black" stroke-dasharray="5,2" d="M244,-187.11C244,-187.11 244,-205.99 244,-205.99"/>
<polygon fill="black" stroke="black" points="240.5,-205.99 244,-215.99 247.5,-205.99 240.5,-205.99"/>
</g>
<!-- CommonModule -->
<g id="node3" class="node">
<title>CommonModule</title>
<polygon fill="#8dd3c7" stroke="black" points="363.67,-122 360.67,-126 339.67,-126 336.67,-122 252.33,-122 252.33,-86 363.67,-86 363.67,-122"/>
<text text-anchor="middle" x="308" y="-99.8" font-family="Times,serif" font-size="14.00">CommonModule</text>
</g>
<!-- CommonModule&#45;&gt;UiModule -->
<g id="edge2" class="edge">
<title>CommonModule&#45;&gt;UiModule</title>
<path fill="none" stroke="black" d="M266.47,-122.11C266.47,-122.11 266.47,-140.99 266.47,-140.99"/>
<polygon fill="black" stroke="black" points="262.97,-140.99 266.47,-150.99 269.97,-140.99 262.97,-140.99"/>
</g>
</g>
</svg>
