<?xml version="1.0" encoding="UTF-8" standalone="no"?>
<!DOCTYPE svg PUBLIC "-//W3C//DTD SVG 1.1//EN"
 "http://www.w3.org/Graphics/SVG/1.1/DTD/svg11.dtd">
<!-- Generated by graphviz version 2.47.0 (20210316.0004)
 -->
<!-- Title: dependencies Pages: 1 -->
<svg width="1350pt" height="211pt"
 viewBox="0.00 0.00 1350.00 211.00" xmlns="http://www.w3.org/2000/svg" xmlns:xlink="http://www.w3.org/1999/xlink">
<g id="graph0" class="graph" transform="scale(1 1) rotate(0) translate(4 207)">
<title>dependencies</title>
<polygon fill="white" stroke="transparent" points="-4,4 -4,-207 1346,-207 1346,4 -4,4"/>
<text text-anchor="start" x="650.01" y="-42.4" font-family="sans-serif" font-weight="bold" font-size="14.00">Legend</text>
<polygon fill="#ffffb3" stroke="transparent" points="437,-10 437,-30 457,-30 457,-10 437,-10"/>
<text text-anchor="start" x="460.63" y="-15.4" font-family="sans-serif" font-size="14.00"> &#160;Declarations</text>
<polygon fill="#8dd3c7" stroke="transparent" points="550,-10 550,-30 570,-30 570,-10 550,-10"/>
<text text-anchor="start" x="573.73" y="-15.4" font-family="sans-serif" font-size="14.00"> &#160;Module</text>
<polygon fill="#80b1d3" stroke="transparent" points="636,-10 636,-30 656,-30 656,-10 636,-10"/>
<text text-anchor="start" x="659.78" y="-15.4" font-family="sans-serif" font-size="14.00"> &#160;Bootstrap</text>
<polygon fill="#fdb462" stroke="transparent" points="733,-10 733,-30 753,-30 753,-10 733,-10"/>
<text text-anchor="start" x="756.67" y="-15.4" font-family="sans-serif" font-size="14.00"> &#160;Providers</text>
<polygon fill="#fb8072" stroke="transparent" points="829,-10 829,-30 849,-30 849,-10 829,-10"/>
<text text-anchor="start" x="852.73" y="-15.4" font-family="sans-serif" font-size="14.00"> &#160;Exports</text>
<g id="clust1" class="cluster">
<title>cluster_MeteoModule</title>
<polygon fill="none" stroke="black" stroke-dasharray="1,5" points="8,-70 8,-195 1334,-195 1334,-70 8,-70"/>
</g>
<g id="clust8" class="cluster">
<title>cluster_MeteoModule_imports</title>
<polygon fill="none" stroke="black" points="762,-78 762,-130 1326,-130 1326,-78 762,-78"/>
</g>
<g id="clust2" class="cluster">
<title>cluster_MeteoModule_declarations</title>
<polygon fill="none" stroke="black" points="16,-78 16,-130 754,-130 754,-78 16,-78"/>
</g>
<!-- MeteoComponent -->
<g id="node1" class="node">
<title>MeteoComponent</title>
<polygon fill="#ffffb3" stroke="black" points="745.6,-122 628.4,-122 628.4,-86 745.6,-86 745.6,-122"/>
<text text-anchor="middle" x="687" y="-99.8" font-family="Times,serif" font-size="14.00">MeteoComponent</text>
</g>
<!-- MeteoModule -->
<g id="node6" class="node">
<title>MeteoModule</title>
<polygon fill="#8dd3c7" stroke="black" points="734.81,-187 731.81,-191 710.81,-191 707.81,-187 639.19,-187 639.19,-151 734.81,-151 734.81,-187"/>
<text text-anchor="middle" x="687" y="-164.8" font-family="Times,serif" font-size="14.00">MeteoModule</text>
</g>
<!-- MeteoComponent&#45;&gt;MeteoModule -->
<g id="edge1" class="edge">
<title>MeteoComponent&#45;&gt;MeteoModule</title>
<path fill="none" stroke="black" d="M687,-122.11C687,-122.11 687,-140.99 687,-140.99"/>
<polygon fill="black" stroke="black" points="683.5,-140.99 687,-150.99 690.5,-140.99 683.5,-140.99"/>
</g>
<!-- ConfigComponent -->
<g id="node2" class="node">
<title>ConfigComponent</title>
<polygon fill="#ffffb3" stroke="black" points="610.22,-122 489.78,-122 489.78,-86 610.22,-86 610.22,-122"/>
<text text-anchor="middle" x="550" y="-99.8" font-family="Times,serif" font-size="14.00">ConfigComponent</text>
</g>
<!-- ConfigComponent&#45;&gt;MeteoModule -->
<g id="edge2" class="edge">
<title>ConfigComponent&#45;&gt;MeteoModule</title>
<path fill="none" stroke="black" d="M550,-122.01C550,-138.05 550,-159 550,-159 550,-159 629.08,-159 629.08,-159"/>
<polygon fill="black" stroke="black" points="629.08,-162.5 639.08,-159 629.08,-155.5 629.08,-162.5"/>
</g>
<!-- CreditsComponent -->
<g id="node3" class="node">
<title>CreditsComponent</title>
<polygon fill="#ffffb3" stroke="black" points="471.77,-122 350.23,-122 350.23,-86 471.77,-86 471.77,-122"/>
<text text-anchor="middle" x="411" y="-99.8" font-family="Times,serif" font-size="14.00">CreditsComponent</text>
</g>
<!-- CreditsComponent&#45;&gt;MeteoModule -->
<g id="edge3" class="edge">
<title>CreditsComponent&#45;&gt;MeteoModule</title>
<path fill="none" stroke="black" d="M411,-122.27C411,-140.56 411,-166 411,-166 411,-166 629.24,-166 629.24,-166"/>
<polygon fill="black" stroke="black" points="629.24,-169.5 639.24,-166 629.24,-162.5 629.24,-169.5"/>
</g>
<!-- PrevisionsComponent -->
<g id="node4" class="node">
<title>PrevisionsComponent</title>
<polygon fill="#ffffb3" stroke="black" points="331.66,-122 192.34,-122 192.34,-86 331.66,-86 331.66,-122"/>
<text text-anchor="middle" x="262" y="-99.8" font-family="Times,serif" font-size="14.00">PrevisionsComponent</text>
</g>
<!-- PrevisionsComponent&#45;&gt;MeteoModule -->
<g id="edge4" class="edge">
<title>PrevisionsComponent&#45;&gt;MeteoModule</title>
<path fill="none" stroke="black" d="M262,-122.13C262,-142.57 262,-173 262,-173 262,-173 629.07,-173 629.07,-173"/>
<polygon fill="black" stroke="black" points="629.07,-176.5 639.07,-173 629.07,-169.5 629.07,-176.5"/>
</g>
<!-- SearchFormComponent -->
<g id="node5" class="node">
<title>SearchFormComponent</title>
<polygon fill="#ffffb3" stroke="black" points="173.75,-122 24.25,-122 24.25,-86 173.75,-86 173.75,-122"/>
<text text-anchor="middle" x="99" y="-99.8" font-family="Times,serif" font-size="14.00">SearchFormComponent</text>
</g>
<!-- SearchFormComponent&#45;&gt;MeteoModule -->
<g id="edge5" class="edge">
<title>SearchFormComponent&#45;&gt;MeteoModule</title>
<path fill="none" stroke="black" d="M99,-122.01C99,-144.49 99,-180 99,-180 99,-180 628.88,-180 628.88,-180"/>
<polygon fill="black" stroke="black" points="628.88,-183.5 638.88,-180 628.88,-176.5 628.88,-183.5"/>
</g>
<!-- CommonModule -->
<g id="node7" class="node">
<title>CommonModule</title>
<polygon fill="#8dd3c7" stroke="black" points="1317.67,-122 1314.67,-126 1293.67,-126 1290.67,-122 1206.33,-122 1206.33,-86 1317.67,-86 1317.67,-122"/>
<text text-anchor="middle" x="1262" y="-99.8" font-family="Times,serif" font-size="14.00">CommonModule</text>
</g>
<!-- CommonModule&#45;&gt;MeteoModule -->
<g id="edge6" class="edge">
<title>CommonModule&#45;&gt;MeteoModule</title>
<path fill="none" stroke="black" d="M1262,-122.01C1262,-144.49 1262,-180 1262,-180 1262,-180 745.04,-180 745.04,-180"/>
<polygon fill="black" stroke="black" points="745.04,-176.5 735.04,-180 745.04,-183.5 745.04,-176.5"/>
</g>
<!-- MeteoRoutingModule -->
<g id="node8" class="node">
<title>MeteoRoutingModule</title>
<polygon fill="#8dd3c7" stroke="black" points="1188.43,-122 1185.43,-126 1164.43,-126 1161.43,-122 1047.57,-122 1047.57,-86 1188.43,-86 1188.43,-122"/>
<text text-anchor="middle" x="1118" y="-99.8" font-family="Times,serif" font-size="14.00">MeteoRoutingModule</text>
</g>
<!-- MeteoRoutingModule&#45;&gt;MeteoModule -->
<g id="edge7" class="edge">
<title>MeteoRoutingModule&#45;&gt;MeteoModule</title>
<path fill="none" stroke="black" d="M1118,-122.13C1118,-142.57 1118,-173 1118,-173 1118,-173 744.77,-173 744.77,-173"/>
<polygon fill="black" stroke="black" points="744.77,-169.5 734.77,-173 744.77,-176.5 744.77,-169.5"/>
</g>
<!-- SharedModule -->
<g id="node9" class="node">
<title>SharedModule</title>
<polygon fill="#8dd3c7" stroke="black" points="1030.42,-122 1027.42,-126 1006.42,-126 1003.42,-122 931.58,-122 931.58,-86 1030.42,-86 1030.42,-122"/>
<text text-anchor="middle" x="981" y="-99.8" font-family="Times,serif" font-size="14.00">SharedModule</text>
</g>
<!-- SharedModule&#45;&gt;MeteoModule -->
<g id="edge8" class="edge">
<title>SharedModule&#45;&gt;MeteoModule</title>
<path fill="none" stroke="black" d="M981,-122.27C981,-140.56 981,-166 981,-166 981,-166 744.89,-166 744.89,-166"/>
<polygon fill="black" stroke="black" points="744.89,-162.5 734.89,-166 744.89,-169.5 744.89,-162.5"/>
</g>
<!-- ReactiveFormsModule -->
<g id="node10" class="node">
<title>ReactiveFormsModule</title>
<polygon fill="#8dd3c7" stroke="black" points="914.3,-122 911.3,-126 890.3,-126 887.3,-122 769.7,-122 769.7,-86 914.3,-86 914.3,-122"/>
<text text-anchor="middle" x="842" y="-99.8" font-family="Times,serif" font-size="14.00">ReactiveFormsModule</text>
</g>
<!-- ReactiveFormsModule&#45;&gt;MeteoModule -->
<g id="edge9" class="edge">
<title>ReactiveFormsModule&#45;&gt;MeteoModule</title>
<path fill="none" stroke="black" d="M842,-122.01C842,-138.05 842,-159 842,-159 842,-159 744.77,-159 744.77,-159"/>
<polygon fill="black" stroke="black" points="744.77,-155.5 734.77,-159 744.77,-162.5 744.77,-155.5"/>
</g>
</g>
</svg>
