<?xml version="1.0" encoding="UTF-8" standalone="no"?>
<!DOCTYPE svg PUBLIC "-//W3C//DTD SVG 1.1//EN"
 "http://www.w3.org/Graphics/SVG/1.1/DTD/svg11.dtd">
<!-- Generated by graphviz version 2.47.0 (20210316.0004)
 -->
<!-- Title: dependencies Pages: 1 -->
<svg width="504pt" height="284pt"
 viewBox="0.00 0.00 504.00 284.00" xmlns="http://www.w3.org/2000/svg" xmlns:xlink="http://www.w3.org/1999/xlink">
<g id="graph0" class="graph" transform="scale(1 1) rotate(0) translate(4 280)">
<title>dependencies</title>
<polygon fill="white" stroke="transparent" points="-4,4 -4,-280 500,-280 500,4 -4,4"/>
<text text-anchor="start" x="227.01" y="-42.4" font-family="sans-serif" font-weight="bold" font-size="14.00">Legend</text>
<polygon fill="#ffffb3" stroke="transparent" points="14,-10 14,-30 34,-30 34,-10 14,-10"/>
<text text-anchor="start" x="37.63" y="-15.4" font-family="sans-serif" font-size="14.00"> &#160;Declarations</text>
<polygon fill="#8dd3c7" stroke="transparent" points="127,-10 127,-30 147,-30 147,-10 127,-10"/>
<text text-anchor="start" x="150.73" y="-15.4" font-family="sans-serif" font-size="14.00"> &#160;Module</text>
<polygon fill="#80b1d3" stroke="transparent" points="213,-10 213,-30 233,-30 233,-10 213,-10"/>
<text text-anchor="start" x="236.78" y="-15.4" font-family="sans-serif" font-size="14.00"> &#160;Bootstrap</text>
<polygon fill="#fdb462" stroke="transparent" points="310,-10 310,-30 330,-30 330,-10 310,-10"/>
<text text-anchor="start" x="333.67" y="-15.4" font-family="sans-serif" font-size="14.00"> &#160;Providers</text>
<polygon fill="#fb8072" stroke="transparent" points="406,-10 406,-30 426,-30 426,-10 406,-10"/>
<text text-anchor="start" x="429.73" y="-15.4" font-family="sans-serif" font-size="14.00"> &#160;Exports</text>
<g id="clust1" class="cluster">
<title>cluster_IconsModule</title>
<polygon fill="none" stroke="black" stroke-dasharray="1,5" points="12.5,-70 12.5,-268 483.5,-268 483.5,-70 12.5,-70"/>
</g>
<g id="clust4" class="cluster">
<title>cluster_IconsModule_imports</title>
<polygon fill="none" stroke="black" points="188.5,-78 188.5,-130 475.5,-130 475.5,-78 188.5,-78"/>
</g>
<g id="clust5" class="cluster">
<title>cluster_IconsModule_exports</title>
<polygon fill="none" stroke="black" points="185.5,-208 185.5,-260 349.5,-260 349.5,-208 185.5,-208"/>
</g>
<g id="clust2" class="cluster">
<title>cluster_IconsModule_declarations</title>
<polygon fill="none" stroke="black" points="20.5,-78 20.5,-130 180.5,-130 180.5,-78 20.5,-78"/>
</g>
<!-- IconSearchComponent -->
<g id="node1" class="node">
<title>IconSearchComponent</title>
<polygon fill="#ffffb3" stroke="black" points="172.79,-122 28.21,-122 28.21,-86 172.79,-86 172.79,-122"/>
<text text-anchor="middle" x="100.5" y="-99.8" font-family="Times,serif" font-size="14.00">IconSearchComponent</text>
</g>
<!-- IconsModule -->
<g id="node2" class="node">
<title>IconsModule</title>
<polygon fill="#8dd3c7" stroke="black" points="312.37,-187 309.37,-191 288.37,-191 285.37,-187 222.63,-187 222.63,-151 312.37,-151 312.37,-187"/>
<text text-anchor="middle" x="267.5" y="-164.8" font-family="Times,serif" font-size="14.00">IconsModule</text>
</g>
<!-- IconSearchComponent&#45;&gt;IconsModule -->
<g id="edge1" class="edge">
<title>IconSearchComponent&#45;&gt;IconsModule</title>
<path fill="none" stroke="black" d="M100.5,-122.11C100.5,-141.34 100.5,-169 100.5,-169 100.5,-169 212.31,-169 212.31,-169"/>
<polygon fill="black" stroke="black" points="212.31,-172.5 222.31,-169 212.31,-165.5 212.31,-172.5"/>
</g>
<!-- IconSearchComponent  -->
<g id="node5" class="node">
<title>IconSearchComponent </title>
<polygon fill="#fb8072" stroke="black" points="341.29,-252 193.71,-252 193.71,-216 341.29,-216 341.29,-252"/>
<text text-anchor="middle" x="267.5" y="-229.8" font-family="Times,serif" font-size="14.00">IconSearchComponent </text>
</g>
<!-- IconsModule&#45;&gt;IconSearchComponent  -->
<g id="edge4" class="edge">
<title>IconsModule&#45;&gt;IconSearchComponent </title>
<path fill="none" stroke="black" stroke-dasharray="5,2" d="M267.5,-187.11C267.5,-187.11 267.5,-205.99 267.5,-205.99"/>
<polygon fill="black" stroke="black" points="264,-205.99 267.5,-215.99 271,-205.99 264,-205.99"/>
</g>
<!-- CommonModule -->
<g id="node3" class="node">
<title>CommonModule</title>
<polygon fill="#8dd3c7" stroke="black" points="467.17,-122 464.17,-126 443.17,-126 440.17,-122 355.83,-122 355.83,-86 467.17,-86 467.17,-122"/>
<text text-anchor="middle" x="411.5" y="-99.8" font-family="Times,serif" font-size="14.00">CommonModule</text>
</g>
<!-- CommonModule&#45;&gt;IconsModule -->
<g id="edge2" class="edge">
<title>CommonModule&#45;&gt;IconsModule</title>
<path fill="none" stroke="black" d="M411.5,-122.11C411.5,-141.34 411.5,-169 411.5,-169 411.5,-169 322.67,-169 322.67,-169"/>
<polygon fill="black" stroke="black" points="322.67,-165.5 312.67,-169 322.67,-172.5 322.67,-165.5"/>
</g>
<!-- FontAwesomeModule -->
<g id="node4" class="node">
<title>FontAwesomeModule</title>
<polygon fill="#8dd3c7" stroke="black" points="338.2,-122 335.2,-126 314.2,-126 311.2,-122 196.8,-122 196.8,-86 338.2,-86 338.2,-122"/>
<text text-anchor="middle" x="267.5" y="-99.8" font-family="Times,serif" font-size="14.00">FontAwesomeModule</text>
</g>
<!-- FontAwesomeModule&#45;&gt;IconsModule -->
<g id="edge3" class="edge">
<title>FontAwesomeModule&#45;&gt;IconsModule</title>
<path fill="none" stroke="black" d="M267.5,-122.11C267.5,-122.11 267.5,-140.99 267.5,-140.99"/>
<polygon fill="black" stroke="black" points="264,-140.99 267.5,-150.99 271,-140.99 264,-140.99"/>
</g>
</g>
</svg>
