<?xml version="1.0" encoding="UTF-8" standalone="no"?>
<!DOCTYPE svg PUBLIC "-//W3C//DTD SVG 1.1//EN"
 "http://www.w3.org/Graphics/SVG/1.1/DTD/svg11.dtd">
<!-- Generated by graphviz version 2.47.0 (20210316.0004)
 -->
<!-- Title: dependencies Pages: 1 -->
<svg width="4939pt" height="374pt"
 viewBox="0.00 0.00 4939.00 374.00" xmlns="http://www.w3.org/2000/svg" xmlns:xlink="http://www.w3.org/1999/xlink">
<g id="graph0" class="graph" transform="scale(1 1) rotate(0) translate(4 370)">
<title>dependencies</title>
<polygon fill="white" stroke="transparent" points="-4,4 -4,-370 4935,-370 4935,4 -4,4"/>
<text text-anchor="start" x="2444.51" y="-42.4" font-family="sans-serif" font-weight="bold" font-size="14.00">Legend</text>
<polygon fill="#ffffb3" stroke="transparent" points="2231.5,-10 2231.5,-30 2251.5,-30 2251.5,-10 2231.5,-10"/>
<text text-anchor="start" x="2255.13" y="-15.4" font-family="sans-serif" font-size="14.00"> &#160;Declarations</text>
<polygon fill="#8dd3c7" stroke="transparent" points="2344.5,-10 2344.5,-30 2364.5,-30 2364.5,-10 2344.5,-10"/>
<text text-anchor="start" x="2368.23" y="-15.4" font-family="sans-serif" font-size="14.00"> &#160;Module</text>
<polygon fill="#80b1d3" stroke="transparent" points="2430.5,-10 2430.5,-30 2450.5,-30 2450.5,-10 2430.5,-10"/>
<text text-anchor="start" x="2454.28" y="-15.4" font-family="sans-serif" font-size="14.00"> &#160;Bootstrap</text>
<polygon fill="#fdb462" stroke="transparent" points="2527.5,-10 2527.5,-30 2547.5,-30 2547.5,-10 2527.5,-10"/>
<text text-anchor="start" x="2551.17" y="-15.4" font-family="sans-serif" font-size="14.00"> &#160;Providers</text>
<polygon fill="#fb8072" stroke="transparent" points="2623.5,-10 2623.5,-30 2643.5,-30 2643.5,-10 2623.5,-10"/>
<text text-anchor="start" x="2647.23" y="-15.4" font-family="sans-serif" font-size="14.00"> &#160;Exports</text>
<g id="clust1" class="cluster">
<title>cluster_AppModule</title>
<polygon fill="none" stroke="black" stroke-dasharray="1,5" points="8,-146 8,-358 766,-358 766,-146 8,-146"/>
</g>
<g id="clust2" class="cluster">
<title>cluster_AppModule_declarations</title>
<polygon fill="none" stroke="black" points="16,-154 16,-206 138,-206 138,-154 16,-154"/>
</g>
<g id="clust4" class="cluster">
<title>cluster_AppModule_imports</title>
<polygon fill="none" stroke="black" points="146,-154 146,-206 758,-206 758,-154 146,-154"/>
</g>
<g id="clust6" class="cluster">
<title>cluster_AppModule_bootstrap</title>
<polygon fill="none" stroke="black" points="329,-298 329,-350 453,-350 453,-298 329,-298"/>
</g>
<g id="clust8" class="cluster">
<title>cluster_AppRoutingModule</title>
<polygon fill="none" stroke="black" stroke-dasharray="1,5" points="774,-222 774,-290 1110,-290 1110,-222 774,-222"/>
</g>
<g id="clust10" class="cluster">
<title>cluster_AppRoutingModule_imports</title>
<polygon fill="none" stroke="black" points="782,-230 782,-282 976,-282 976,-230 782,-230"/>
</g>
<g id="clust11" class="cluster">
<title>cluster_AppRoutingModule_exports</title>
<polygon fill="none" stroke="black" points="984,-230 984,-282 1102,-282 1102,-230 984,-230"/>
</g>
<g id="clust14" class="cluster">
<title>cluster_CoreModule</title>
<polygon fill="none" stroke="black" stroke-dasharray="1,5" points="3012,-146 3012,-214 4785,-214 4785,-146 3012,-146"/>
</g>
<g id="clust15" class="cluster">
<title>cluster_CoreModule_declarations</title>
<polygon fill="none" stroke="black" points="4197,-154 4197,-206 4777,-206 4777,-154 4197,-154"/>
</g>
<g id="clust20" class="cluster">
<title>cluster_CoreModule_imports</title>
<polygon fill="none" stroke="black" points="3945,-154 3945,-206 4189,-206 4189,-154 3945,-154"/>
</g>
<g id="clust21" class="cluster">
<title>cluster_CoreModule_exports</title>
<polygon fill="none" stroke="black" points="3020,-154 3020,-206 3937,-206 3937,-154 3020,-154"/>
</g>
<g id="clust24" class="cluster">
<title>cluster_IconsModule</title>
<polygon fill="none" stroke="black" stroke-dasharray="1,5" points="2662,-146 2662,-358 3004,-358 3004,-146 2662,-146"/>
</g>
<g id="clust25" class="cluster">
<title>cluster_IconsModule_declarations</title>
<polygon fill="none" stroke="black" points="2836,-154 2836,-206 2996,-206 2996,-154 2836,-154"/>
</g>
<g id="clust27" class="cluster">
<title>cluster_IconsModule_imports</title>
<polygon fill="none" stroke="black" points="2670,-154 2670,-206 2828,-206 2828,-154 2670,-154"/>
</g>
<g id="clust28" class="cluster">
<title>cluster_IconsModule_exports</title>
<polygon fill="none" stroke="black" points="2832,-298 2832,-350 2996,-350 2996,-298 2832,-298"/>
</g>
<g id="clust31" class="cluster">
<title>cluster_MeteoModule</title>
<polygon fill="none" stroke="black" stroke-dasharray="1,5" points="1458,-146 1458,-282 2654,-282 2654,-146 1458,-146"/>
</g>
<g id="clust32" class="cluster">
<title>cluster_MeteoModule_declarations</title>
<polygon fill="none" stroke="black" points="1908,-154 1908,-206 2646,-206 2646,-154 1908,-154"/>
</g>
<g id="clust38" class="cluster">
<title>cluster_MeteoModule_imports</title>
<polygon fill="none" stroke="black" points="1466,-154 1466,-206 1900,-206 1900,-154 1466,-154"/>
</g>
<g id="clust42" class="cluster">
<title>cluster_MeteoRoutingModule</title>
<polygon fill="none" stroke="black" stroke-dasharray="1,5" points="1437,-70 1437,-138 1651,-138 1651,-70 1437,-70"/>
</g>
<g id="clust44" class="cluster">
<title>cluster_MeteoRoutingModule_imports</title>
<polygon fill="none" stroke="black" points="1445,-78 1445,-130 1643,-130 1643,-78 1445,-78"/>
</g>
<g id="clust48" class="cluster">
<title>cluster_SharedModule</title>
<polygon fill="none" stroke="black" stroke-dasharray="1,5" points="1118,-222 1118,-290 1450,-290 1450,-222 1118,-222"/>
</g>
<g id="clust49" class="cluster">
<title>cluster_SharedModule_declarations</title>
<polygon fill="none" stroke="black" points="1290,-230 1290,-282 1442,-282 1442,-230 1290,-230"/>
</g>
<g id="clust52" class="cluster">
<title>cluster_SharedModule_exports</title>
<polygon fill="none" stroke="black" points="1126,-230 1126,-282 1282,-282 1282,-230 1126,-230"/>
</g>
<g id="clust55" class="cluster">
<title>cluster_UiModule</title>
<polygon fill="none" stroke="black" stroke-dasharray="1,5" points="4793,-146 4793,-358 4923,-358 4923,-146 4793,-146"/>
</g>
<g id="clust56" class="cluster">
<title>cluster_UiModule_declarations</title>
<polygon fill="none" stroke="black" points="4801,-154 4801,-206 4913,-206 4913,-154 4801,-154"/>
</g>
<g id="clust59" class="cluster">
<title>cluster_UiModule_exports</title>
<polygon fill="none" stroke="black" points="4801,-298 4801,-350 4915,-350 4915,-298 4801,-298"/>
</g>
<!-- AppComponent -->
<g id="node1" class="node">
<title>AppComponent</title>
<polygon fill="#ffffb3" stroke="black" points="129.94,-198 24.06,-198 24.06,-162 129.94,-162 129.94,-198"/>
<text text-anchor="middle" x="77" y="-175.8" font-family="Times,serif" font-size="14.00">AppComponent</text>
</g>
<!-- AppModule -->
<g id="node2" class="node">
<title>AppModule</title>
<polygon fill="#8dd3c7" stroke="black" points="432.66,-274 429.66,-278 408.66,-278 405.66,-274 349.34,-274 349.34,-238 432.66,-238 432.66,-274"/>
<text text-anchor="middle" x="391" y="-251.8" font-family="Times,serif" font-size="14.00">AppModule</text>
</g>
<!-- AppComponent&#45;&gt;AppModule -->
<g id="edge1" class="edge">
<title>AppComponent&#45;&gt;AppModule</title>
<path fill="none" stroke="black" d="M77,-198.2C77,-222.36 77,-262 77,-262 77,-262 339.3,-262 339.3,-262"/>
<polygon fill="black" stroke="black" points="339.3,-265.5 349.3,-262 339.3,-258.5 339.3,-265.5"/>
</g>
<!-- AppComponent  -->
<g id="node8" class="node">
<title>AppComponent </title>
<polygon fill="#80b1d3" stroke="black" points="445.44,-342 336.56,-342 336.56,-306 445.44,-306 445.44,-342"/>
<text text-anchor="middle" x="391" y="-319.8" font-family="Times,serif" font-size="14.00">AppComponent </text>
</g>
<!-- AppModule&#45;&gt;AppComponent  -->
<g id="edge7" class="edge">
<title>AppModule&#45;&gt;AppComponent </title>
<path fill="none" stroke="black" stroke-dasharray="1,5" d="M391,-274.22C391,-274.22 391,-295.73 391,-295.73"/>
<polygon fill="black" stroke="black" points="387.5,-295.73 391,-305.73 394.5,-295.73 387.5,-295.73"/>
</g>
<!-- BrowserModule -->
<g id="node3" class="node">
<title>BrowserModule</title>
<polygon fill="#8dd3c7" stroke="black" points="502.47,-198 499.47,-202 478.47,-202 475.47,-198 395.53,-198 395.53,-162 502.47,-162 502.47,-198"/>
<text text-anchor="middle" x="449" y="-175.8" font-family="Times,serif" font-size="14.00">BrowserModule</text>
</g>
<!-- BrowserModule&#45;&gt;AppModule -->
<g id="edge2" class="edge">
<title>BrowserModule&#45;&gt;AppModule</title>
<path fill="none" stroke="black" d="M414.17,-198.01C414.17,-198.01 414.17,-227.85 414.17,-227.85"/>
<polygon fill="black" stroke="black" points="410.67,-227.85 414.17,-237.85 417.67,-227.85 410.67,-227.85"/>
</g>
<!-- CoreModule -->
<g id="node4" class="node">
<title>CoreModule</title>
<polygon fill="#8dd3c7" stroke="black" points="377.26,-198 374.26,-202 353.26,-202 350.26,-198 290.74,-198 290.74,-162 377.26,-162 377.26,-198"/>
<text text-anchor="middle" x="334" y="-175.8" font-family="Times,serif" font-size="14.00">CoreModule</text>
</g>
<!-- CoreModule&#45;&gt;AppModule -->
<g id="edge3" class="edge">
<title>CoreModule&#45;&gt;AppModule</title>
<path fill="none" stroke="black" d="M351.19,-198.01C351.19,-198.01 351.19,-227.85 351.19,-227.85"/>
<polygon fill="black" stroke="black" points="347.69,-227.85 351.19,-237.85 354.69,-227.85 347.69,-227.85"/>
</g>
<!-- UiModule  -->
<g id="node17" class="node">
<title>UiModule </title>
<polygon fill="#fb8072" stroke="black" points="3105.55,-198 3028.45,-198 3028.45,-162 3105.55,-162 3105.55,-198"/>
<text text-anchor="middle" x="3067" y="-175.8" font-family="Times,serif" font-size="14.00">UiModule </text>
</g>
<!-- CoreModule&#45;&gt;UiModule  -->
<g id="edge16" class="edge">
<title>CoreModule&#45;&gt;UiModule </title>
<path fill="none" stroke="black" stroke-dasharray="5,2" d="M375.37,-198.08C375.37,-199.85 375.37,-201 375.37,-201 375.37,-201 3067,-201 3067,-201 3067,-201 3067,-200.71 3067,-200.71"/>
<polygon fill="black" stroke="black" points="3070.5,-208.08 3067,-198.08 3063.5,-208.08 3070.5,-208.08"/>
</g>
<!-- IconsModule  -->
<g id="node18" class="node">
<title>IconsModule </title>
<polygon fill="#fb8072" stroke="black" points="3928.87,-198 3835.13,-198 3835.13,-162 3928.87,-162 3928.87,-198"/>
<text text-anchor="middle" x="3882" y="-175.8" font-family="Times,serif" font-size="14.00">IconsModule </text>
</g>
<!-- CoreModule&#45;&gt;IconsModule  -->
<g id="edge17" class="edge">
<title>CoreModule&#45;&gt;IconsModule </title>
<path fill="none" stroke="black" stroke-dasharray="5,2" d="M363.28,-198.42C363.28,-207.28 363.28,-216 363.28,-216 363.28,-216 3897.56,-216 3897.56,-216 3897.56,-216 3897.56,-208.42 3897.56,-208.42"/>
<polygon fill="black" stroke="black" points="3901.06,-208.42 3897.56,-198.42 3894.06,-208.42 3901.06,-208.42"/>
</g>
<!-- MeteoModule  -->
<g id="node19" class="node">
<title>MeteoModule </title>
<polygon fill="#fb8072" stroke="black" points="3630.31,-198 3531.69,-198 3531.69,-162 3630.31,-162 3630.31,-198"/>
<text text-anchor="middle" x="3581" y="-175.8" font-family="Times,serif" font-size="14.00">MeteoModule </text>
</g>
<!-- CoreModule&#45;&gt;MeteoModule  -->
<g id="edge18" class="edge">
<title>CoreModule&#45;&gt;MeteoModule </title>
<path fill="none" stroke="black" stroke-dasharray="5,2" d="M367.31,-198.14C367.31,-204.46 367.31,-210 367.31,-210 367.31,-210 3581,-210 3581,-210 3581,-210 3581,-208.14 3581,-208.14"/>
<polygon fill="black" stroke="black" points="3584.5,-208.14 3581,-198.14 3577.5,-208.14 3584.5,-208.14"/>
</g>
<!-- NavComponent  -->
<g id="node20" class="node">
<title>NavComponent </title>
<polygon fill="#fb8072" stroke="black" points="3514.15,-198 3405.85,-198 3405.85,-162 3514.15,-162 3514.15,-198"/>
<text text-anchor="middle" x="3460" y="-175.8" font-family="Times,serif" font-size="14.00">NavComponent </text>
</g>
<!-- CoreModule&#45;&gt;NavComponent  -->
<g id="edge19" class="edge">
<title>CoreModule&#45;&gt;NavComponent </title>
<path fill="none" stroke="black" stroke-dasharray="5,2" d="M369.32,-198.16C369.32,-203.04 369.32,-207 369.32,-207 369.32,-207 3460,-207 3460,-207 3460,-207 3460,-206.12 3460,-206.12"/>
<polygon fill="black" stroke="black" points="3463.5,-208.16 3460,-198.16 3456.5,-208.16 3463.5,-208.16"/>
</g>
<!-- HeaderComponent  -->
<g id="node21" class="node">
<title>HeaderComponent </title>
<polygon fill="#fb8072" stroke="black" points="3387.74,-198 3262.26,-198 3262.26,-162 3387.74,-162 3387.74,-198"/>
<text text-anchor="middle" x="3325" y="-175.8" font-family="Times,serif" font-size="14.00">HeaderComponent </text>
</g>
<!-- CoreModule&#45;&gt;HeaderComponent  -->
<g id="edge20" class="edge">
<title>CoreModule&#45;&gt;HeaderComponent </title>
<path fill="none" stroke="black" stroke-dasharray="5,2" d="M371.34,-198.17C371.34,-202.05 371.34,-205 371.34,-205 371.34,-205 3325,-205 3325,-205 3325,-205 3325,-204.32 3325,-204.32"/>
<polygon fill="black" stroke="black" points="3328.5,-208.17 3325,-198.17 3321.5,-208.17 3328.5,-208.17"/>
</g>
<!-- FooterComponent  -->
<g id="node22" class="node">
<title>FooterComponent </title>
<polygon fill="#fb8072" stroke="black" points="3244.88,-198 3123.12,-198 3123.12,-162 3244.88,-162 3244.88,-198"/>
<text text-anchor="middle" x="3184" y="-175.8" font-family="Times,serif" font-size="14.00">FooterComponent </text>
</g>
<!-- CoreModule&#45;&gt;FooterComponent  -->
<g id="edge21" class="edge">
<title>CoreModule&#45;&gt;FooterComponent </title>
<path fill="none" stroke="black" stroke-dasharray="5,2" d="M373.35,-198.12C373.35,-200.97 373.35,-203 373.35,-203 373.35,-203 3184,-203 3184,-203 3184,-203 3184,-202.51 3184,-202.51"/>
<polygon fill="black" stroke="black" points="3187.5,-208.12 3184,-198.12 3180.5,-208.12 3187.5,-208.12"/>
</g>
<!-- PageNotFoundComponent  -->
<g id="node23" class="node">
<title>PageNotFoundComponent </title>
<polygon fill="#fb8072" stroke="black" points="3817.32,-198 3648.68,-198 3648.68,-162 3817.32,-162 3817.32,-198"/>
<text text-anchor="middle" x="3733" y="-175.8" font-family="Times,serif" font-size="14.00">PageNotFoundComponent </text>
</g>
<!-- CoreModule&#45;&gt;PageNotFoundComponent  -->
<g id="edge22" class="edge">
<title>CoreModule&#45;&gt;PageNotFoundComponent </title>
<path fill="none" stroke="black" stroke-dasharray="5,2" d="M365.29,-198.24C365.29,-205.43 365.29,-212 365.29,-212 365.29,-212 3733,-212 3733,-212 3733,-212 3733,-208.24 3733,-208.24"/>
<polygon fill="black" stroke="black" points="3736.5,-208.24 3733,-198.24 3729.5,-208.24 3736.5,-208.24"/>
</g>
<!-- AppRoutingModule -->
<g id="node5" class="node">
<title>AppRoutingModule</title>
<polygon fill="#8dd3c7" stroke="black" points="750.27,-198 747.27,-202 726.27,-202 723.27,-198 621.73,-198 621.73,-162 750.27,-162 750.27,-198"/>
<text text-anchor="middle" x="686" y="-175.8" font-family="Times,serif" font-size="14.00">AppRoutingModule</text>
</g>
<!-- AppRoutingModule&#45;&gt;AppModule -->
<g id="edge4" class="edge">
<title>AppRoutingModule&#45;&gt;AppModule</title>
<path fill="none" stroke="black" d="M664.54,-198.03C664.54,-222.98 664.54,-265 664.54,-265 664.54,-265 442.84,-265 442.84,-265"/>
<polygon fill="black" stroke="black" points="442.84,-261.5 432.84,-265 442.84,-268.5 442.84,-261.5"/>
</g>
<!-- RouterModule  -->
<g id="node10" class="node">
<title>RouterModule </title>
<polygon fill="#fb8072" stroke="black" points="1093.65,-274 992.35,-274 992.35,-238 1093.65,-238 1093.65,-274"/>
<text text-anchor="middle" x="1043" y="-251.8" font-family="Times,serif" font-size="14.00">RouterModule </text>
</g>
<!-- AppRoutingModule&#45;&gt;RouterModule  -->
<g id="edge9" class="edge">
<title>AppRoutingModule&#45;&gt;RouterModule </title>
<path fill="none" stroke="black" stroke-dasharray="5,2" d="M750.38,-186C848.99,-186 1026.14,-186 1026.14,-186 1026.14,-186 1026.14,-227.97 1026.14,-227.97"/>
<polygon fill="black" stroke="black" points="1022.64,-227.97 1026.14,-237.97 1029.64,-227.97 1022.64,-227.97"/>
</g>
<!-- NgbModule -->
<g id="node6" class="node">
<title>NgbModule</title>
<polygon fill="#8dd3c7" stroke="black" points="603.66,-198 600.66,-202 579.66,-202 576.66,-198 520.34,-198 520.34,-162 603.66,-162 603.66,-198"/>
<text text-anchor="middle" x="562" y="-175.8" font-family="Times,serif" font-size="14.00">NgbModule</text>
</g>
<!-- NgbModule&#45;&gt;AppModule -->
<g id="edge5" class="edge">
<title>NgbModule&#45;&gt;AppModule</title>
<path fill="none" stroke="black" d="M562,-198.01C562,-220.49 562,-256 562,-256 562,-256 442.83,-256 442.83,-256"/>
<polygon fill="black" stroke="black" points="442.83,-252.5 432.83,-256 442.83,-259.5 442.83,-252.5"/>
</g>
<!-- HttpClientModule -->
<g id="node7" class="node">
<title>HttpClientModule</title>
<polygon fill="#8dd3c7" stroke="black" points="272.16,-198 269.16,-202 248.16,-202 245.16,-198 153.84,-198 153.84,-162 272.16,-162 272.16,-198"/>
<text text-anchor="middle" x="213" y="-175.8" font-family="Times,serif" font-size="14.00">HttpClientModule</text>
</g>
<!-- HttpClientModule&#45;&gt;AppModule -->
<g id="edge6" class="edge">
<title>HttpClientModule&#45;&gt;AppModule</title>
<path fill="none" stroke="black" d="M213,-198.03C213,-218.77 213,-250 213,-250 213,-250 339.27,-250 339.27,-250"/>
<polygon fill="black" stroke="black" points="339.27,-253.5 349.27,-250 339.27,-246.5 339.27,-253.5"/>
</g>
<!-- RouterModule.forRoot(args) -->
<g id="node9" class="node">
<title>RouterModule.forRoot(args)</title>
<polygon fill="#8dd3c7" stroke="black" points="967.84,-274 964.84,-278 943.84,-278 940.84,-274 790.16,-274 790.16,-238 967.84,-238 967.84,-274"/>
<text text-anchor="middle" x="879" y="-251.8" font-family="Times,serif" font-size="14.00">RouterModule.forRoot(args)</text>
</g>
<!-- RouterModule.forRoot(args)&#45;&gt;AppRoutingModule -->
<g id="edge8" class="edge">
<title>RouterModule.forRoot(args)&#45;&gt;AppRoutingModule</title>
<path fill="none" stroke="black" d="M790.22,-247C748.36,-247 707.46,-247 707.46,-247 707.46,-247 707.46,-208.31 707.46,-208.31"/>
<polygon fill="black" stroke="black" points="710.96,-208.31 707.46,-198.31 703.96,-208.31 710.96,-208.31"/>
</g>
<!-- HeaderComponent -->
<g id="node11" class="node">
<title>HeaderComponent</title>
<polygon fill="#ffffb3" stroke="black" points="4768.74,-198 4647.26,-198 4647.26,-162 4768.74,-162 4768.74,-198"/>
<text text-anchor="middle" x="4708" y="-175.8" font-family="Times,serif" font-size="14.00">HeaderComponent</text>
</g>
<!-- HeaderComponent&#45;&gt;CoreModule -->
<g id="edge10" class="edge">
<title>HeaderComponent&#45;&gt;CoreModule</title>
<path fill="none" stroke="black" d="M4708,-198.19C4708,-213.18 4708,-232 4708,-232 4708,-232 342.85,-232 342.85,-232 342.85,-232 342.85,-208.19 342.85,-208.19"/>
<polygon fill="black" stroke="black" points="346.35,-208.19 342.85,-198.19 339.35,-208.19 346.35,-208.19"/>
</g>
<!-- FooterComponent -->
<g id="node12" class="node">
<title>FooterComponent</title>
<polygon fill="#ffffb3" stroke="black" points="4628.88,-198 4511.12,-198 4511.12,-162 4628.88,-162 4628.88,-198"/>
<text text-anchor="middle" x="4570" y="-175.8" font-family="Times,serif" font-size="14.00">FooterComponent</text>
</g>
<!-- FooterComponent&#45;&gt;CoreModule -->
<g id="edge11" class="edge">
<title>FooterComponent&#45;&gt;CoreModule</title>
<path fill="none" stroke="black" d="M4570,-198.05C4570,-212.37 4570,-230 4570,-230 4570,-230 353.2,-230 353.2,-230 353.2,-230 353.2,-208.05 353.2,-208.05"/>
<polygon fill="black" stroke="black" points="356.7,-208.05 353.2,-198.05 349.7,-208.05 356.7,-208.05"/>
</g>
<!-- NavComponent -->
<g id="node13" class="node">
<title>NavComponent</title>
<polygon fill="#ffffb3" stroke="black" points="4493.15,-198 4388.85,-198 4388.85,-162 4493.15,-162 4493.15,-198"/>
<text text-anchor="middle" x="4441" y="-175.8" font-family="Times,serif" font-size="14.00">NavComponent</text>
</g>
<!-- NavComponent&#45;&gt;CoreModule -->
<g id="edge12" class="edge">
<title>NavComponent&#45;&gt;CoreModule</title>
<path fill="none" stroke="black" d="M4441,-198.04C4441,-211.29 4441,-227 4441,-227 4441,-227 355.22,-227 355.22,-227 355.22,-227 355.22,-208.04 355.22,-208.04"/>
<polygon fill="black" stroke="black" points="358.72,-208.04 355.22,-198.04 351.72,-208.04 358.72,-208.04"/>
</g>
<!-- PageNotFoundComponent -->
<g id="node14" class="node">
<title>PageNotFoundComponent</title>
<polygon fill="#ffffb3" stroke="black" points="4370.82,-198 4205.18,-198 4205.18,-162 4370.82,-162 4370.82,-198"/>
<text text-anchor="middle" x="4288" y="-175.8" font-family="Times,serif" font-size="14.00">PageNotFoundComponent</text>
</g>
<!-- PageNotFoundComponent&#45;&gt;CoreModule -->
<g id="edge13" class="edge">
<title>PageNotFoundComponent&#45;&gt;CoreModule</title>
<path fill="none" stroke="black" d="M4288,-198.04C4288,-210.56 4288,-225 4288,-225 4288,-225 357.23,-225 357.23,-225 357.23,-225 357.23,-208.04 357.23,-208.04"/>
<polygon fill="black" stroke="black" points="360.73,-208.04 357.23,-198.04 353.73,-208.04 360.73,-208.04"/>
</g>
<!-- CommonModule -->
<g id="node15" class="node">
<title>CommonModule</title>
<polygon fill="#8dd3c7" stroke="black" points="4180.67,-198 4177.67,-202 4156.67,-202 4153.67,-198 4069.33,-198 4069.33,-162 4180.67,-162 4180.67,-198"/>
<text text-anchor="middle" x="4125" y="-175.8" font-family="Times,serif" font-size="14.00">CommonModule</text>
</g>
<!-- CommonModule&#45;&gt;CoreModule -->
<g id="edge14" class="edge">
<title>CommonModule&#45;&gt;CoreModule</title>
<path fill="none" stroke="black" d="M4106.39,-198.49C4106.39,-210.14 4106.39,-223 4106.39,-223 4106.39,-223 359.25,-223 359.25,-223 359.25,-223 359.25,-208.49 359.25,-208.49"/>
<polygon fill="black" stroke="black" points="362.75,-208.49 359.25,-198.49 355.75,-208.49 362.75,-208.49"/>
</g>
<!-- IconsModule -->
<g id="node25" class="node">
<title>IconsModule</title>
<polygon fill="#8dd3c7" stroke="black" points="2959.87,-274 2956.87,-278 2935.87,-278 2932.87,-274 2870.13,-274 2870.13,-238 2959.87,-238 2959.87,-274"/>
<text text-anchor="middle" x="2915" y="-251.8" font-family="Times,serif" font-size="14.00">IconsModule</text>
</g>
<!-- CommonModule&#45;&gt;IconsModule -->
<g id="edge24" class="edge">
<title>CommonModule&#45;&gt;IconsModule</title>
<path fill="none" stroke="black" d="M4143.61,-198.03C4143.61,-218.77 4143.61,-250 4143.61,-250 4143.61,-250 2970.18,-250 2970.18,-250"/>
<polygon fill="black" stroke="black" points="2970.18,-246.5 2960.18,-250 2970.18,-253.5 2970.18,-246.5"/>
</g>
<!-- MeteoModule -->
<g id="node33" class="node">
<title>MeteoModule</title>
<polygon fill="#8dd3c7" stroke="black" points="2201.81,-274 2198.81,-278 2177.81,-278 2174.81,-274 2106.19,-274 2106.19,-238 2201.81,-238 2201.81,-274"/>
<text text-anchor="middle" x="2154" y="-251.8" font-family="Times,serif" font-size="14.00">MeteoModule</text>
</g>
<!-- CommonModule&#45;&gt;MeteoModule -->
<g id="edge32" class="edge">
<title>CommonModule&#45;&gt;MeteoModule</title>
<path fill="none" stroke="black" d="M4125,-198.28C4125,-213.95 4125,-234 4125,-234 4125,-234 2169.89,-234 2169.89,-234 2169.89,-234 2169.89,-234.38 2169.89,-234.38"/>
<polygon fill="black" stroke="black" points="2166.39,-227.83 2169.89,-237.83 2173.39,-227.83 2166.39,-227.83"/>
</g>
<!-- SharedModule -->
<g id="node35" class="node">
<title>SharedModule</title>
<polygon fill="#8dd3c7" stroke="black" points="1730.42,-198 1727.42,-202 1706.42,-202 1703.42,-198 1631.58,-198 1631.58,-162 1730.42,-162 1730.42,-198"/>
<text text-anchor="middle" x="1681" y="-175.8" font-family="Times,serif" font-size="14.00">SharedModule</text>
</g>
<!-- CommonModule&#45;&gt;SharedModule -->
<g id="edge39" class="edge">
<title>CommonModule&#45;&gt;SharedModule</title>
<path fill="none" stroke="black" d="M4087.78,-198.1C4087.78,-209.09 4087.78,-221 4087.78,-221 4087.78,-221 1664.6,-221 1664.6,-221 1664.6,-221 1664.6,-208.1 1664.6,-208.1"/>
<polygon fill="black" stroke="black" points="1668.1,-208.1 1664.6,-198.1 1661.1,-208.1 1668.1,-208.1"/>
</g>
<!-- UiModule -->
<g id="node41" class="node">
<title>UiModule</title>
<polygon fill="#8dd3c7" stroke="black" points="4893.55,-274 4890.55,-278 4869.55,-278 4866.55,-274 4820.45,-274 4820.45,-238 4893.55,-238 4893.55,-274"/>
<text text-anchor="middle" x="4857" y="-251.8" font-family="Times,serif" font-size="14.00">UiModule</text>
</g>
<!-- CommonModule&#45;&gt;UiModule -->
<g id="edge44" class="edge">
<title>CommonModule&#45;&gt;UiModule</title>
<path fill="none" stroke="black" d="M4162.22,-198.2C4162.22,-222.36 4162.22,-262 4162.22,-262 4162.22,-262 4810.14,-262 4810.14,-262"/>
<polygon fill="black" stroke="black" points="4810.14,-265.5 4820.14,-262 4810.14,-258.5 4810.14,-265.5"/>
</g>
<!-- RouterModule -->
<g id="node16" class="node">
<title>RouterModule</title>
<polygon fill="#8dd3c7" stroke="black" points="4050.65,-198 4047.65,-202 4026.65,-202 4023.65,-198 3953.35,-198 3953.35,-162 4050.65,-162 4050.65,-198"/>
<text text-anchor="middle" x="4002" y="-175.8" font-family="Times,serif" font-size="14.00">RouterModule</text>
</g>
<!-- RouterModule&#45;&gt;CoreModule -->
<g id="edge15" class="edge">
<title>RouterModule&#45;&gt;CoreModule</title>
<path fill="none" stroke="black" d="M4002,-198.11C4002,-207.9 4002,-218 4002,-218 4002,-218 361.26,-218 361.26,-218 361.26,-218 361.26,-208.11 361.26,-208.11"/>
<polygon fill="black" stroke="black" points="364.76,-208.11 361.26,-198.11 357.76,-208.11 364.76,-208.11"/>
</g>
<!-- RouterModule&#45;&gt;SharedModule -->
<g id="edge40" class="edge">
<title>RouterModule&#45;&gt;SharedModule</title>
<path fill="none" stroke="black" d="M4002,-161.89C4002,-152.1 4002,-142 4002,-142 4002,-142 1682.41,-142 1682.41,-142 1682.41,-142 1682.41,-151.89 1682.41,-151.89"/>
<polygon fill="black" stroke="black" points="1678.91,-151.89 1682.41,-161.89 1685.91,-151.89 1678.91,-151.89"/>
</g>
<!-- IconSearchComponent -->
<g id="node24" class="node">
<title>IconSearchComponent</title>
<polygon fill="#ffffb3" stroke="black" points="2988.29,-198 2843.71,-198 2843.71,-162 2988.29,-162 2988.29,-198"/>
<text text-anchor="middle" x="2916" y="-175.8" font-family="Times,serif" font-size="14.00">IconSearchComponent</text>
</g>
<!-- IconSearchComponent&#45;&gt;IconsModule -->
<g id="edge23" class="edge">
<title>IconSearchComponent&#45;&gt;IconsModule</title>
<path fill="none" stroke="black" d="M2915,-198.01C2915,-198.01 2915,-227.85 2915,-227.85"/>
<polygon fill="black" stroke="black" points="2911.5,-227.85 2915,-237.85 2918.5,-227.85 2911.5,-227.85"/>
</g>
<!-- IconSearchComponent  -->
<g id="node27" class="node">
<title>IconSearchComponent </title>
<polygon fill="#fb8072" stroke="black" points="2987.79,-342 2840.21,-342 2840.21,-306 2987.79,-306 2987.79,-342"/>
<text text-anchor="middle" x="2914" y="-319.8" font-family="Times,serif" font-size="14.00">IconSearchComponent </text>
</g>
<!-- IconsModule&#45;&gt;IconSearchComponent  -->
<g id="edge26" class="edge">
<title>IconsModule&#45;&gt;IconSearchComponent </title>
<path fill="none" stroke="black" stroke-dasharray="5,2" d="M2915,-274.22C2915,-274.22 2915,-295.73 2915,-295.73"/>
<polygon fill="black" stroke="black" points="2911.5,-295.73 2915,-305.73 2918.5,-295.73 2911.5,-295.73"/>
</g>
<!-- FontAwesomeModule -->
<g id="node26" class="node">
<title>FontAwesomeModule</title>
<polygon fill="#8dd3c7" stroke="black" points="2819.7,-198 2816.7,-202 2795.7,-202 2792.7,-198 2678.3,-198 2678.3,-162 2819.7,-162 2819.7,-198"/>
<text text-anchor="middle" x="2749" y="-175.8" font-family="Times,serif" font-size="14.00">FontAwesomeModule</text>
</g>
<!-- FontAwesomeModule&#45;&gt;IconsModule -->
<g id="edge25" class="edge">
<title>FontAwesomeModule&#45;&gt;IconsModule</title>
<path fill="none" stroke="black" d="M2749,-198.03C2749,-217.58 2749,-246 2749,-246 2749,-246 2860.08,-246 2860.08,-246"/>
<polygon fill="black" stroke="black" points="2860.08,-249.5 2870.08,-246 2860.08,-242.5 2860.08,-249.5"/>
</g>
<!-- MeteoComponent -->
<g id="node28" class="node">
<title>MeteoComponent</title>
<polygon fill="#ffffb3" stroke="black" points="2637.6,-198 2520.4,-198 2520.4,-162 2637.6,-162 2637.6,-198"/>
<text text-anchor="middle" x="2579" y="-175.8" font-family="Times,serif" font-size="14.00">MeteoComponent</text>
</g>
<!-- MeteoComponent&#45;&gt;MeteoModule -->
<g id="edge27" class="edge">
<title>MeteoComponent&#45;&gt;MeteoModule</title>
<path fill="none" stroke="black" d="M2579,-198.03C2579,-223.51 2579,-267 2579,-267 2579,-267 2211.93,-267 2211.93,-267"/>
<polygon fill="black" stroke="black" points="2211.93,-263.5 2201.93,-267 2211.93,-270.5 2211.93,-263.5"/>
</g>
<!-- ConfigComponent -->
<g id="node29" class="node">
<title>ConfigComponent</title>
<polygon fill="#ffffb3" stroke="black" points="2502.22,-198 2381.78,-198 2381.78,-162 2502.22,-162 2502.22,-198"/>
<text text-anchor="middle" x="2442" y="-175.8" font-family="Times,serif" font-size="14.00">ConfigComponent</text>
</g>
<!-- ConfigComponent&#45;&gt;MeteoModule -->
<g id="edge28" class="edge">
<title>ConfigComponent&#45;&gt;MeteoModule</title>
<path fill="none" stroke="black" d="M2442,-198.15C2442,-221.76 2442,-260 2442,-260 2442,-260 2211.88,-260 2211.88,-260"/>
<polygon fill="black" stroke="black" points="2211.88,-256.5 2201.88,-260 2211.88,-263.5 2211.88,-256.5"/>
</g>
<!-- CreditsComponent -->
<g id="node30" class="node">
<title>CreditsComponent</title>
<polygon fill="#ffffb3" stroke="black" points="2363.77,-198 2242.23,-198 2242.23,-162 2363.77,-162 2363.77,-198"/>
<text text-anchor="middle" x="2303" y="-175.8" font-family="Times,serif" font-size="14.00">CreditsComponent</text>
</g>
<!-- CreditsComponent&#45;&gt;MeteoModule -->
<g id="edge29" class="edge">
<title>CreditsComponent&#45;&gt;MeteoModule</title>
<path fill="none" stroke="black" d="M2303,-198.04C2303,-219.66 2303,-253 2303,-253 2303,-253 2211.96,-253 2211.96,-253"/>
<polygon fill="black" stroke="black" points="2211.96,-249.5 2201.96,-253 2211.96,-256.5 2211.96,-249.5"/>
</g>
<!-- PrevisionsComponent -->
<g id="node31" class="node">
<title>PrevisionsComponent</title>
<polygon fill="#ffffb3" stroke="black" points="2223.66,-198 2084.34,-198 2084.34,-162 2223.66,-162 2223.66,-198"/>
<text text-anchor="middle" x="2154" y="-175.8" font-family="Times,serif" font-size="14.00">PrevisionsComponent</text>
</g>
<!-- PrevisionsComponent&#45;&gt;MeteoModule -->
<g id="edge30" class="edge">
<title>PrevisionsComponent&#45;&gt;MeteoModule</title>
<path fill="none" stroke="black" d="M2138.11,-198.01C2138.11,-198.01 2138.11,-227.85 2138.11,-227.85"/>
<polygon fill="black" stroke="black" points="2134.61,-227.85 2138.11,-237.85 2141.61,-227.85 2134.61,-227.85"/>
</g>
<!-- SearchFormComponent -->
<g id="node32" class="node">
<title>SearchFormComponent</title>
<polygon fill="#ffffb3" stroke="black" points="2065.75,-198 1916.25,-198 1916.25,-162 2065.75,-162 2065.75,-198"/>
<text text-anchor="middle" x="1991" y="-175.8" font-family="Times,serif" font-size="14.00">SearchFormComponent</text>
</g>
<!-- SearchFormComponent&#45;&gt;MeteoModule -->
<g id="edge31" class="edge">
<title>SearchFormComponent&#45;&gt;MeteoModule</title>
<path fill="none" stroke="black" d="M1991,-198.03C1991,-218.77 1991,-250 1991,-250 1991,-250 2095.98,-250 2095.98,-250"/>
<polygon fill="black" stroke="black" points="2095.98,-253.5 2105.98,-250 2095.98,-246.5 2095.98,-253.5"/>
</g>
<!-- MeteoRoutingModule -->
<g id="node34" class="node">
<title>MeteoRoutingModule</title>
<polygon fill="#8dd3c7" stroke="black" points="1614.43,-198 1611.43,-202 1590.43,-202 1587.43,-198 1473.57,-198 1473.57,-162 1614.43,-162 1614.43,-198"/>
<text text-anchor="middle" x="1544" y="-175.8" font-family="Times,serif" font-size="14.00">MeteoRoutingModule</text>
</g>
<!-- MeteoRoutingModule&#45;&gt;RouterModule  -->
<g id="edge37" class="edge">
<title>MeteoRoutingModule&#45;&gt;RouterModule </title>
<path fill="none" stroke="black" stroke-dasharray="5,2" d="M1473.6,-174C1339.33,-174 1059.86,-174 1059.86,-174 1059.86,-174 1059.86,-227.8 1059.86,-227.8"/>
<polygon fill="black" stroke="black" points="1056.36,-227.8 1059.86,-237.8 1063.36,-227.8 1056.36,-227.8"/>
</g>
<!-- MeteoRoutingModule&#45;&gt;MeteoModule -->
<g id="edge33" class="edge">
<title>MeteoRoutingModule&#45;&gt;MeteoModule</title>
<path fill="none" stroke="black" d="M1544,-198.23C1544,-224.01 1544,-268 1544,-268 1544,-268 2096.13,-268 2096.13,-268"/>
<polygon fill="black" stroke="black" points="2096.13,-271.5 2106.13,-268 2096.13,-264.5 2096.13,-271.5"/>
</g>
<!-- SharedModule&#45;&gt;IconsModule  -->
<g id="edge42" class="edge">
<title>SharedModule&#45;&gt;IconsModule </title>
<path fill="none" stroke="black" stroke-dasharray="5,2" d="M1681,-198.19C1681,-206.28 1681,-214 1681,-214 1681,-214 3866.44,-214 3866.44,-214 3866.44,-214 3866.44,-208.19 3866.44,-208.19"/>
<polygon fill="black" stroke="black" points="3869.94,-208.19 3866.44,-198.19 3862.94,-208.19 3869.94,-208.19"/>
</g>
<!-- SharedModule&#45;&gt;MeteoModule -->
<g id="edge34" class="edge">
<title>SharedModule&#45;&gt;MeteoModule</title>
<path fill="none" stroke="black" d="M1713.81,-198.2C1713.81,-222.36 1713.81,-262 1713.81,-262 1713.81,-262 2096.05,-262 2096.05,-262"/>
<polygon fill="black" stroke="black" points="2096.05,-265.5 2106.05,-262 2096.05,-258.5 2096.05,-265.5"/>
</g>
<!-- TplMeteoComponent  -->
<g id="node39" class="node">
<title>TplMeteoComponent </title>
<polygon fill="#fb8072" stroke="black" points="1274.04,-274 1133.96,-274 1133.96,-238 1274.04,-238 1274.04,-274"/>
<text text-anchor="middle" x="1204" y="-251.8" font-family="Times,serif" font-size="14.00">TplMeteoComponent </text>
</g>
<!-- SharedModule&#45;&gt;TplMeteoComponent  -->
<g id="edge41" class="edge">
<title>SharedModule&#45;&gt;TplMeteoComponent </title>
<path fill="none" stroke="black" stroke-dasharray="5,2" d="M1648.19,-198.03C1648.19,-214.4 1648.19,-236 1648.19,-236 1648.19,-236 1204,-236 1204,-236 1204,-236 1204,-236.18 1204,-236.18"/>
<polygon fill="black" stroke="black" points="1200.5,-227.85 1204,-237.85 1207.5,-227.85 1200.5,-227.85"/>
</g>
<!-- ReactiveFormsModule -->
<g id="node36" class="node">
<title>ReactiveFormsModule</title>
<polygon fill="#8dd3c7" stroke="black" points="1892.3,-198 1889.3,-202 1868.3,-202 1865.3,-198 1747.7,-198 1747.7,-162 1892.3,-162 1892.3,-198"/>
<text text-anchor="middle" x="1820" y="-175.8" font-family="Times,serif" font-size="14.00">ReactiveFormsModule</text>
</g>
<!-- ReactiveFormsModule&#45;&gt;MeteoModule -->
<g id="edge35" class="edge">
<title>ReactiveFormsModule&#45;&gt;MeteoModule</title>
<path fill="none" stroke="black" d="M1820,-198.01C1820,-220.49 1820,-256 1820,-256 1820,-256 2096.15,-256 2096.15,-256"/>
<polygon fill="black" stroke="black" points="2096.15,-259.5 2106.15,-256 2096.15,-252.5 2096.15,-259.5"/>
</g>
<!-- RouterModule.forChild(args) -->
<g id="node37" class="node">
<title>RouterModule.forChild(args)</title>
<polygon fill="#8dd3c7" stroke="black" points="1634.73,-122 1631.73,-126 1610.73,-126 1607.73,-122 1453.27,-122 1453.27,-86 1634.73,-86 1634.73,-122"/>
<text text-anchor="middle" x="1544" y="-99.8" font-family="Times,serif" font-size="14.00">RouterModule.forChild(args)</text>
</g>
<!-- RouterModule.forChild(args)&#45;&gt;MeteoRoutingModule -->
<g id="edge36" class="edge">
<title>RouterModule.forChild(args)&#45;&gt;MeteoRoutingModule</title>
<path fill="none" stroke="black" d="M1544,-122.01C1544,-122.01 1544,-151.85 1544,-151.85"/>
<polygon fill="black" stroke="black" points="1540.5,-151.85 1544,-161.85 1547.5,-151.85 1540.5,-151.85"/>
</g>
<!-- TplMeteoComponent -->
<g id="node38" class="node">
<title>TplMeteoComponent</title>
<polygon fill="#ffffb3" stroke="black" points="1434.04,-274 1297.96,-274 1297.96,-238 1434.04,-238 1434.04,-274"/>
<text text-anchor="middle" x="1366" y="-251.8" font-family="Times,serif" font-size="14.00">TplMeteoComponent</text>
</g>
<!-- TplMeteoComponent&#45;&gt;SharedModule -->
<g id="edge38" class="edge">
<title>TplMeteoComponent&#45;&gt;SharedModule</title>
<path fill="none" stroke="black" d="M1434.27,-244C1531.28,-244 1697.4,-244 1697.4,-244 1697.4,-244 1697.4,-208.17 1697.4,-208.17"/>
<polygon fill="black" stroke="black" points="1700.9,-208.17 1697.4,-198.17 1693.9,-208.17 1700.9,-208.17"/>
</g>
<!-- UiComponent -->
<g id="node40" class="node">
<title>UiComponent</title>
<polygon fill="#ffffb3" stroke="black" points="4904.83,-198 4809.17,-198 4809.17,-162 4904.83,-162 4904.83,-198"/>
<text text-anchor="middle" x="4857" y="-175.8" font-family="Times,serif" font-size="14.00">UiComponent</text>
</g>
<!-- UiComponent&#45;&gt;UiModule -->
<g id="edge43" class="edge">
<title>UiComponent&#45;&gt;UiModule</title>
<path fill="none" stroke="black" d="M4857,-198.01C4857,-198.01 4857,-227.85 4857,-227.85"/>
<polygon fill="black" stroke="black" points="4853.5,-227.85 4857,-237.85 4860.5,-227.85 4853.5,-227.85"/>
</g>
<!-- UiComponent  -->
<g id="node42" class="node">
<title>UiComponent </title>
<polygon fill="#fb8072" stroke="black" points="4907.33,-342 4808.67,-342 4808.67,-306 4907.33,-306 4907.33,-342"/>
<text text-anchor="middle" x="4858" y="-319.8" font-family="Times,serif" font-size="14.00">UiComponent </text>
</g>
<!-- UiModule&#45;&gt;UiComponent  -->
<g id="edge45" class="edge">
<title>UiModule&#45;&gt;UiComponent </title>
<path fill="none" stroke="black" stroke-dasharray="5,2" d="M4857,-274.22C4857,-274.22 4857,-295.73 4857,-295.73"/>
<polygon fill="black" stroke="black" points="4853.5,-295.73 4857,-305.73 4860.5,-295.73 4853.5,-295.73"/>
</g>
</g>
</svg>
